# xmcd
#
# Track frame offsets:
#	150
#	44744
#	104836
#	159391
#	210067
#
# Disc length: 3310 seconds
#
# Revision: 1
# Processed by: cddbd v1.5.2PL0 Copyright (c) Steve Scherf et al.
# Submitted via: audiograbber 1.83.01
#
DISCID=3e0cec05
DTITLE=Grateful Dead - 82-04-19 Baltimore Civic Centre, Baltimore MD
DYEAR=1900
DGENRE=
TTITLE0=Feel Like A Stranger
TTITLE1=Franklin's Tower
TTITLE2=Estimated Prophet
TTITLE3=Terrapin Station
TTITLE4=Drums
EXTD=
EXTT0=
EXTT1=
EXTT2=
EXTT3=
EXTT4=
PLAYORDER=
